<?xml version="1.0" encoding="utf-8"?>
<!-- Generator: Adobe Illustrator 23.1.0, SVG Export Plug-In . SVG Version: 6.00 Build 0)  -->
<svg version="1.1" id="Layer_1" xmlns="http://www.w3.org/2000/svg" xmlns:xlink="http://www.w3.org/1999/xlink" x="0px" y="0px"
	 viewBox="0 0 1282 345" style="enable-background:new 0 0 1282 345;" xml:space="preserve">
<style type="text/css">
	.st0{fill-rule:evenodd;clip-rule:evenodd;fill:#272F6A;}
	.st1{fill-rule:evenodd;clip-rule:evenodd;fill:#F05C22;}
	.st2{fill:#F05C22;}
	.st3{fill:#272F6A;}
</style>
<g>
	<g id="Mark">
		<g>
			<path class="st0" d="M301.79,310.43C206.7,311.55,118.95,324.16,70.43,258c-52.5-71.59-29.69-156.08,27.23-197.17
				c62.89-45.4,149.11-32.8,195.76,33.97c40.54,58.02,16.79,129.84,23.79,190.08c1.31,11.24,24.44,28.77,34.22,34.45
				c0.72-47.27,4.04-121.99-1.07-166.75C333.46,4.72,153.05-48.35,55.87,51.21C-10.4,119.1-6,232.99,52.55,289.7
				c27.1,26.24,60.35,49.87,110.85,54.3l164.52-0.03C321.17,333.15,309.57,319.98,301.79,310.43L301.79,310.43z"/>
		</g>
		<g>
			<path class="st1" d="M201.58,175.14c2.42-4.07-1.1-6.91-1.5-7.38c-10.27-12.13-36.2-30.12-41.26-42
				c10.3,2.33,32.05,19.43,40.43,26.43c53.56,44.69,17.48,37.9,33.62,60.47c4.12,5.75,10.53,11.72,15.71,16.5
				c11.34,10.46,23.13,19.39,33.65,29.6c2.46-13.04,2.01-85.41,0.25-100.11c-6.5-54.46-56.7-93.59-110.27-90.17
				c-26.91,1.72-56.35,18.35-68.05,31.04c-58.13,63.06-21.46,172.2,68,176.7c22.08,1.11,78.19,2.32,98.24-0.61
				c-8.61-12.31-20.62-23.44-30.75-35.14c-26.29-30.34-24.54-18.14-40.98-21.26c-18.1-3.44-56.14-52-61.77-71.91
				c9.21,3.95,26.19,27.86,35.15,36.69c4.03,3.96,7.23,7.93,14.19,9.38c-8.38-19.77-28.95-28.23-42.84-52.37
				c6.69,0.16,1.78-2.32,13.42,9.91c4.46,4.68,7.12,6.19,12.09,10.81c7.16,6.66,15.19,20.02,26.03,22.06
				c-5.53-17.04-36.02-32.2-43.75-51.41C168.91,140.02,188.23,172.45,201.58,175.14L201.58,175.14z"/>
		</g>
	</g>
	<g id="Text">
		<g>
			<path class="st2" d="M504.6,191.34l-21.76-29.53c-6.02,1.7-12.18,2.56-18.47,2.56c-13.41,0-25.72-3.56-36.94-10.7
				c-11.22-7.13-20.11-17.01-26.68-29.64c-6.57-12.63-9.85-26.93-9.85-42.9c0-15.81,3.28-30.03,9.85-42.66
				c6.57-12.63,15.46-22.51,26.68-29.64c11.22-7.13,23.53-10.7,36.94-10.7c13.55,0,25.89,3.57,37.04,10.7
				c11.15,7.13,19.97,17.01,26.47,29.64c6.5,12.64,9.75,26.85,9.75,42.66c0,14.42-2.7,27.55-8.11,39.41
				c-5.41,11.86-12.76,21.51-22.06,28.95l32.84,41.85H504.6z M426,109.74c3.69,8.22,8.86,14.53,15.49,18.95
				c6.64,4.42,14.26,6.63,22.88,6.63s16.21-2.21,22.78-6.63c6.57-4.42,11.7-10.73,15.39-18.95c3.69-8.21,5.54-17.75,5.54-28.6
				c0-10.85-1.85-20.34-5.54-28.48c-3.69-8.14-8.82-14.37-15.39-18.72c-6.57-4.34-14.16-6.51-22.78-6.51s-16.25,2.17-22.88,6.51
				c-6.64,4.34-11.8,10.58-15.49,18.72c-3.69,8.14-5.54,17.63-5.54,28.48C420.46,91.99,422.31,101.52,426,109.74z"/>
			<path class="st2" d="M713.11,0.46v162.29h-28.73V57.19L646,162.75h-21.76L585.67,57.19v105.56h-28.73V0.46h32.63l45.56,120.67
				L680.69,0.46H713.11z"/>
			<path class="st2" d="M826.81,131.82h-57.05l-9.44,30.92h-30.17L781.66,0.23h33.45l51.51,162.52h-30.37L826.81,131.82z
				 M819.01,105.78l-20.73-67.89l-20.73,67.89H819.01z"/>
			<path class="st2" d="M1005.97,162.75h-28.73L912.18,51.38v111.37h-28.73V0.23h28.73l65.06,111.6V0.23h28.73V162.75z"/>
			<path class="st2" d="M1115.36,0.46v113.93c0,15.81-4.04,28.1-12.11,36.85c-8.07,8.76-18.88,13.14-32.43,13.14
				c-13.68,0-24.73-4.49-33.14-13.49c-8.41-8.99-12.62-21.54-12.62-37.67h28.73c0.13,6.97,1.61,12.4,4.41,16.28
				c2.8,3.88,6.88,5.81,12.21,5.81c5.2,0,9.16-1.86,11.9-5.58c2.74-3.72,4.1-8.83,4.1-15.34V0.46H1115.36z"/>
			<path class="st2" d="M1234.19,131.82h-57.05l-9.44,30.92h-30.17l51.51-162.52h33.45L1274,162.75h-30.37L1234.19,131.82z
				 M1226.39,105.78l-20.73-67.89l-20.73,67.89H1226.39z"/>
		</g>
		<g>
			<path class="st3" d="M422.71,339.7c-6.35-3.2-11.36-7.8-15.05-13.8c-3.69-6-5.58-13.09-5.68-21.27l24.41,0.01
				c0.32,5.49,1.97,9.84,4.96,13.03c2.98,3.2,7.08,4.79,12.28,4.8c5.31,0,9.49-1.5,12.53-4.5c3.04-3,4.56-6.93,4.56-11.78
				c0-3.96-1.03-7.21-3.09-9.77c-2.06-2.55-4.64-4.57-7.73-6.04c-3.09-1.47-7.35-3.1-12.77-4.89c-7.38-2.56-13.37-5.08-17.98-7.58
				c-4.61-2.49-8.57-6.26-11.87-11.31c-3.31-5.05-4.96-11.79-4.95-20.22c0-7.92,1.69-14.81,5.06-20.69
				c3.36-5.87,8.09-10.37,14.17-13.5c6.08-3.12,13.02-4.69,20.83-4.68c11.72,0.01,21.24,3.36,28.56,10.07
				c7.32,6.71,11.36,16.07,12.11,28.08l-25.06-0.01c-0.22-4.6-1.87-8.4-4.96-11.4c-3.09-3-7.19-4.51-12.28-4.51
				c-4.45,0-8,1.34-10.66,4.02c-2.66,2.68-3.99,6.58-3.99,11.68c0,3.58,1,6.55,3.01,8.91c2.01,2.36,4.5,4.28,7.48,5.75
				c2.98,1.47,7.18,3.16,12.61,5.08c7.38,2.56,13.4,5.12,18.06,7.67c4.66,2.56,8.67,6.39,12.04,11.5
				c3.36,5.11,5.04,11.82,5.04,20.12c0,7.15-1.58,13.79-4.73,19.92c-3.15,6.13-7.76,11.01-13.84,14.65
				c-6.08,3.64-13.29,5.45-21.65,5.45C436.18,344.5,429.05,342.9,422.71,339.7z"/>
			<path class="st3" d="M525.48,335.73c-8.89-5.88-15.94-14.02-21.14-24.44c-5.2-10.41-7.8-22.19-7.79-35.35
				c0.01-13.03,2.62-24.74,7.83-35.15c5.21-10.4,12.27-18.54,21.17-24.41c8.9-5.87,18.66-8.8,29.3-8.8
				c10.74,0.01,20.53,2.95,29.37,8.83c8.84,5.88,15.83,14.03,20.98,24.44c5.15,10.42,7.72,22.13,7.71,35.16
				c-0.01,13.16-2.59,24.94-7.75,35.34c-5.16,10.41-12.19,18.55-21.09,24.42c-8.9,5.87-18.67,8.8-29.3,8.8
				C544.13,344.56,534.37,341.62,525.48,335.73z M572.85,315.16c5.21-3.64,9.28-8.84,12.21-15.61c2.93-6.77,4.4-14.62,4.41-23.56
				c0-8.94-1.46-16.76-4.38-23.47c-2.93-6.71-6.99-11.85-12.2-15.43c-5.21-3.58-11.23-5.37-18.06-5.38
				c-6.84,0-12.89,1.78-18.15,5.35c-5.27,3.57-9.36,8.71-12.3,15.42c-2.93,6.7-4.4,14.53-4.41,23.47c0,8.94,1.46,16.8,4.38,23.57
				c2.93,6.77,7.02,11.98,12.28,15.62c5.26,3.64,11.31,5.47,18.14,5.47C561.62,320.62,567.64,318.8,572.85,315.16z"/>
			<path class="st3" d="M650.63,322.01l37.43,0.02l-0.01,21.27l-60.22-0.03l0.07-133.73l22.78,0.01L650.63,322.01z"/>
			<path class="st3" d="M723.11,209.59l-0.04,82.76c0,9.07,2,16,6.01,20.79s9.65,7.19,16.92,7.19c7.38,0,13.07-2.39,17.09-7.18
				s6.03-11.71,6.03-20.78l0.04-82.76l22.95,0.01l-0.04,82.57c-0.01,11.37-2.1,20.98-6.28,28.83c-4.18,7.85-9.77,13.76-16.77,17.71
				c-7,3.96-14.79,5.93-23.36,5.93c-8.46,0-16.14-1.99-23.03-5.95c-6.89-3.96-12.34-9.87-16.35-17.73
				c-4.01-7.86-6.01-17.47-6.01-28.84l0.04-82.57L723.11,209.59z"/>
			<path class="st3" d="M889.44,209.68l-0.01,21.65l-30.27-0.02l-0.06,112.08l-22.78-0.01l0.06-112.08l-30.27-0.02l0.01-21.65
				L889.44,209.68z"/>
			<path class="st3" d="M926.87,209.7l-0.07,133.73l-22.78-0.01l0.07-133.73L926.87,209.7z"/>
			<path class="st3" d="M970.74,335.97c-8.89-5.88-15.94-14.02-21.14-24.44c-5.2-10.41-7.8-22.19-7.79-35.35
				c0.01-13.03,2.62-24.74,7.83-35.15c5.21-10.4,12.27-18.54,21.17-24.41c8.9-5.87,18.66-8.8,29.3-8.8
				c10.74,0.01,20.53,2.95,29.37,8.83c8.84,5.88,15.83,14.03,20.98,24.44c5.15,10.41,7.72,22.13,7.71,35.16
				c-0.01,13.16-2.59,24.94-7.75,35.34c-5.16,10.41-12.19,18.55-21.09,24.41c-8.9,5.87-18.67,8.8-29.3,8.8
				C989.39,344.8,979.63,341.85,970.74,335.97z M1018.11,315.4c5.21-3.64,9.28-8.84,12.21-15.61c2.93-6.77,4.4-14.62,4.41-23.56
				c0-8.94-1.46-16.76-4.38-23.47c-2.93-6.71-6.99-11.85-12.2-15.43c-5.21-3.58-11.23-5.37-18.06-5.37
				c-6.84,0-12.89,1.78-18.15,5.35c-5.26,3.57-9.36,8.71-12.3,15.42c-2.93,6.7-4.4,14.53-4.4,23.46c-0.01,8.94,1.45,16.8,4.38,23.57
				c2.93,6.77,7.02,11.98,12.28,15.62c5.26,3.64,11.31,5.47,18.14,5.47C1006.87,320.86,1012.9,319.04,1018.11,315.4z"/>
			<path class="st3" d="M1170.25,343.55l-22.78-0.01l-51.54-91.8l-0.05,91.77l-22.78-0.01l0.07-133.92l22.78,0.01l51.54,91.99
				l0.05-91.96l22.78,0.01L1170.25,343.55z"/>
			<path class="st3" d="M1208.58,340.13c-6.35-3.2-11.36-7.8-15.05-13.8c-3.69-6-5.58-13.09-5.68-21.27l24.41,0.01
				c0.32,5.49,1.97,9.84,4.96,13.03c2.98,3.2,7.08,4.79,12.29,4.8c5.31,0,9.49-1.5,12.53-4.5c3.04-3,4.56-6.93,4.56-11.78
				c0-3.96-1.03-7.21-3.09-9.77c-2.06-2.55-4.64-4.57-7.73-6.04c-3.09-1.47-7.35-3.1-12.77-4.89c-7.38-2.56-13.37-5.08-17.98-7.58
				c-4.61-2.49-8.57-6.26-11.87-11.31c-3.31-5.05-4.96-11.79-4.95-20.22c0-7.92,1.69-14.81,5.06-20.69
				c3.36-5.87,8.09-10.37,14.16-13.5c6.08-3.12,13.02-4.69,20.84-4.68c11.72,0.01,21.24,3.36,28.56,10.07s11.36,16.07,12.11,28.08
				l-25.06-0.01c-0.22-4.6-1.87-8.4-4.96-11.4c-3.09-3-7.19-4.51-12.29-4.51c-4.45,0-8,1.34-10.66,4.02
				c-2.66,2.68-3.99,6.58-3.99,11.68c0,3.58,1,6.55,3.01,8.91c2,2.36,4.5,4.28,7.48,5.75c2.98,1.47,7.18,3.16,12.61,5.08
				c7.38,2.56,13.4,5.12,18.06,7.67c4.67,2.56,8.68,6.39,12.04,11.5c3.36,5.11,5.04,11.82,5.04,20.12c0,7.15-1.58,13.79-4.73,19.92
				c-3.15,6.13-7.76,11.01-13.84,14.65c-6.08,3.64-13.29,5.45-21.65,5.45C1222.06,344.92,1214.92,343.32,1208.58,340.13z"/>
		</g>
	</g>
</g>
</svg>
